<svg width="40" height="40" viewBox="0 0 40 40" fill="none" xmlns="http://www.w3.org/2000/svg">
<path d="M28.4163 33.8C26.783 35.3833 24.9996 35.1333 23.283 34.3833C21.4663 33.6167 19.7996 33.5833 17.883 34.3833C15.483 35.4167 14.2163 35.1167 12.783 33.8C4.64962 25.4167 5.84962 12.65 15.083 12.1833C17.333 12.3 18.8996 13.4167 20.2163 13.5167C22.183 13.1167 24.0663 11.9667 26.1663 12.1167C28.683 12.3167 30.583 13.3167 31.833 15.1167C26.633 18.2333 27.8663 25.0833 32.633 27C31.683 29.5 30.4496 31.9833 28.3996 33.8167L28.4163 33.8ZM20.0496 12.0833C19.7996 8.36667 22.8163 5.3 26.283 5C26.7663 9.3 22.383 12.5 20.0496 12.0833Z" fill="black"/>
</svg>
