<svg width="37" height="40" viewBox="0 0 37 40" fill="none" xmlns="http://www.w3.org/2000/svg">
<g clip-path="url(#clip0_1_387)">
<path d="M16.8975 19.0693L0.149414 36.6163C0.337494 37.2829 0.675479 37.8976 1.13753 38.4134C1.59959 38.9293 2.17348 39.3327 2.81534 39.5928C3.45719 39.8529 4.15002 39.9628 4.84086 39.9142C5.5317 39.8655 6.20226 39.6594 6.80129 39.3119L25.6461 28.5792L16.8975 19.0693Z" fill="#EA4335"/>
<path d="M33.8337 16.0866L25.6846 11.4189L16.5117 19.4684L25.7219 28.5539L33.809 23.9363C34.5254 23.5611 35.1255 22.9971 35.5441 22.3052C35.9628 21.6133 36.1842 20.8201 36.1842 20.0114C36.1842 19.2027 35.9628 18.4094 35.5441 17.7176C35.1255 17.0257 34.5254 16.4616 33.809 16.0865L33.8337 16.0866Z" fill="#FBBC04"/>
<path d="M0.149806 3.3197C0.0486319 3.69397 -0.00176063 4.08014 -1.73087e-05 4.46783V35.4681C0.000981713 35.8557 0.0513277 36.2415 0.149806 36.6164L17.4721 19.5187L0.149806 3.3197Z" fill="#4285F4"/>
<path d="M17.0223 19.9681L25.6835 11.4192L6.86376 0.636475C6.15567 0.221805 5.35034 0.00219444 4.52977 8.6686e-06C2.49344 -0.00394893 0.703195 1.34757 0.149414 3.30729L17.0223 19.9681Z" fill="#34A853"/>
</g>
<defs>
<clipPath id="clip0_1_387">
<rect width="36.1837" height="40" fill="white"/>
</clipPath>
</defs>
</svg>
